<svg width="19" height="20" viewBox="0 0 19 20" fill="none" xmlns="http://www.w3.org/2000/svg">
<path d="M13.3977 19.3281H6.18586C6.04435 19.3281 5.92969 19.2135 5.92969 19.072V18.24C5.92969 17.308 6.29321 16.4322 6.95193 15.7722C7.61065 15.1135 8.48773 14.75 9.4197 14.75H10.1638C11.0958 14.75 11.9716 15.1135 12.6316 15.7722C13.2915 16.431 13.6538 17.308 13.6538 18.24V19.072C13.6538 19.2135 13.5392 19.3281 13.3977 19.3281ZM6.44203 18.8158H13.1403V18.24C13.1403 16.5981 11.8045 15.2636 10.1638 15.2636H9.4197C7.77777 15.2636 6.44325 16.5993 6.44325 18.24L6.44203 18.8158Z" fill="#361343"/>
<path d="M15.4773 14.7496C14.3441 14.7496 13.4219 13.8274 13.4219 12.6941C13.4219 11.5609 14.3441 10.6387 15.4773 10.6387C16.6106 10.6387 17.5328 11.5609 17.5328 12.6941C17.5328 13.8274 16.6106 14.7496 15.4773 14.7496ZM15.4773 11.151C14.6259 11.151 13.9342 11.8439 13.9342 12.6941C13.9342 13.5456 14.6271 14.2372 15.4773 14.2372C16.3288 14.2372 17.0205 13.5444 17.0205 12.6941C17.0205 11.8439 16.3288 11.151 15.4773 11.151Z" fill="#361343"/>
<path d="M4.11796 14.7496C2.98471 14.7496 2.0625 13.8274 2.0625 12.6941C2.0625 11.5609 2.98471 10.6387 4.11796 10.6387C5.25121 10.6387 6.17342 11.5609 6.17342 12.6941C6.17342 13.8274 5.25121 14.7496 4.11796 14.7496ZM4.11796 11.151C3.2665 11.151 2.57484 11.8439 2.57484 12.6941C2.57484 13.5456 3.26772 14.2372 4.11796 14.2372C4.9682 14.2372 5.66108 13.5444 5.66108 12.6941C5.66108 11.8439 4.9682 11.151 4.11796 11.151Z" fill="#361343"/>
<path d="M17.1399 15.0735C17.0899 15.0735 17.0399 15.0589 16.9948 15.0284C16.8777 14.9479 16.8484 14.7893 16.9289 14.6722C17.9146 13.2352 18.4354 11.5506 18.4354 9.80006C18.4354 5.04384 14.566 1.17445 9.80982 1.17445C5.0536 1.17445 1.18422 5.04384 1.18422 9.80006C1.18422 11.5493 1.70509 13.2352 2.69074 14.6722C2.77125 14.7893 2.74075 14.9479 2.62487 15.0284C2.50776 15.1089 2.34918 15.0784 2.26867 14.9625C1.22447 13.4389 0.671875 11.6542 0.671875 9.80128C0.671875 8.568 0.913407 7.37132 1.39037 6.24418C1.85026 5.15606 2.50898 4.17896 3.34824 3.3397C4.1875 2.50043 5.16461 1.84171 6.25272 1.38183C7.37987 0.903641 8.57655 0.662109 9.80982 0.662109C11.0431 0.662109 12.2398 0.903641 13.3669 1.38061C14.455 1.84049 15.4321 2.49921 16.2714 3.33848C17.1107 4.17774 17.7694 5.15484 18.2293 6.24296C18.7062 7.3701 18.9478 8.56678 18.9478 9.80006C18.9478 11.6542 18.3952 13.4389 17.351 14.9613C17.3022 15.0345 17.2217 15.0735 17.1399 15.0735Z" fill="#361343"/>
<path d="M14.1783 11.7079C14.0368 11.7079 13.9221 11.5932 13.9221 11.4517C13.9221 11.4432 13.9221 11.4359 13.9233 11.4273C13.9734 10.8943 13.999 10.3466 13.999 9.80006C13.999 8.42406 13.844 7.10905 13.5391 5.8892C13.1841 4.47172 12.6449 3.27992 11.9789 2.44066C11.3214 1.61238 10.5724 1.17445 9.81364 1.17445C9.05489 1.17445 8.30589 1.61238 7.64961 2.44066C6.98357 3.27992 6.44439 4.47294 6.08941 5.8892C5.78445 7.10905 5.62953 8.42406 5.62953 9.80006C5.62953 10.3466 5.65514 10.8943 5.70516 11.4273C5.70638 11.4359 5.70638 11.4432 5.70638 11.4517C5.70638 11.5932 5.59171 11.7079 5.45021 11.7079C5.31602 11.7079 5.20502 11.6042 5.19526 11.4725C5.14402 10.9248 5.11719 10.3612 5.11719 9.80006C5.11719 8.38259 5.27699 7.02488 5.59293 5.76477C5.96499 4.27777 6.53832 3.01765 7.24828 2.12228C8.00581 1.16713 8.89265 0.662109 9.81364 0.662109C10.7346 0.662109 11.6215 1.16713 12.379 2.12228C13.0902 3.01887 13.6623 4.27777 14.0343 5.76477C14.3503 7.02488 14.5101 8.38259 14.5101 9.80006C14.5101 10.3624 14.4845 10.9248 14.432 11.4737C14.4223 11.6054 14.3125 11.7079 14.1783 11.7079Z" fill="#361343"/>
<path d="M17.2217 12.5032C17.1436 12.5032 17.068 12.4678 17.0167 12.4019C16.9314 12.2885 16.9533 12.1287 17.0668 12.0433C17.9621 11.3675 18.4354 10.5917 18.4354 9.79997C18.4354 9.04121 17.9975 8.29222 17.1692 7.63594C16.33 6.9699 15.1369 6.43072 13.7207 6.07574C12.5008 5.77078 11.1858 5.61586 9.80982 5.61586C8.43383 5.61586 7.11882 5.77078 5.89896 6.07574C4.48149 6.43072 3.28969 6.9699 2.45043 7.63594C1.62214 8.29222 1.18422 9.04121 1.18422 9.79997C1.18422 10.5917 1.65752 11.3675 2.55289 12.0433C2.66634 12.1287 2.6883 12.2897 2.60291 12.4019C2.51752 12.5154 2.3565 12.5373 2.24427 12.4519C1.21593 11.6749 0.671875 10.7576 0.671875 9.79997C0.671875 8.87897 1.1769 7.99214 2.13204 7.23461C3.02864 6.52343 4.28753 5.95132 5.77454 5.57926C7.03465 5.26332 8.39235 5.10352 9.80982 5.10352C11.2273 5.10352 12.585 5.26332 13.8451 5.57926C15.3321 5.95132 16.5922 6.52465 17.4876 7.23461C18.4428 7.99214 18.9478 8.87897 18.9478 9.79997C18.9478 10.7588 18.4037 11.6761 17.3754 12.4532C17.3302 12.4861 17.2753 12.5032 17.2217 12.5032Z" fill="#361343"/>
<path d="M18.6916 10.0553H0.928045C0.786542 10.0553 0.671875 9.94064 0.671875 9.79914C0.671875 9.65764 0.786542 9.54297 0.928045 9.54297H18.6928C18.8343 9.54297 18.949 9.65764 18.949 9.79914C18.949 9.94064 18.8331 10.0553 18.6916 10.0553Z" fill="#361343"/>
<path d="M9.80304 11.2249C9.66154 11.2249 9.54688 11.1102 9.54688 10.9687V0.918279C9.54688 0.776776 9.66154 0.662109 9.80304 0.662109C9.94455 0.662109 10.0592 0.776776 10.0592 0.918279V10.9687C10.0592 11.1102 9.94455 11.2249 9.80304 11.2249Z" fill="#361343"/>
<path d="M9.8285 15.2625C8.57449 15.2625 7.55469 14.2427 7.55469 12.9887C7.55469 11.7346 8.57449 10.7148 9.8285 10.7148C11.0825 10.7148 12.1023 11.7346 12.1023 12.9887C12.1023 14.2427 11.0825 15.2625 9.8285 15.2625ZM9.8285 11.226C8.8575 11.226 8.06703 12.0164 8.06703 12.9874C8.06703 13.9584 8.8575 14.7489 9.8285 14.7489C10.7995 14.7489 11.59 13.9584 11.59 12.9874C11.59 12.0164 10.7995 11.226 9.8285 11.226Z" fill="#361343"/>
<path d="M6.22199 18.3729H0.94367C0.802167 18.3729 0.6875 18.2582 0.6875 18.1167V17.375C0.6875 16.537 1.01442 15.749 1.60727 15.1561C2.20012 14.5633 2.98815 14.2363 3.82619 14.2363H4.48979C5.07899 14.2363 5.65354 14.401 6.15124 14.7121C6.63552 15.0146 7.0271 15.4428 7.28693 15.9502C7.35158 16.0759 7.30157 16.2308 7.1747 16.2954C7.04905 16.3601 6.89413 16.3101 6.82948 16.1832C6.37813 15.2988 5.48154 14.7499 4.48857 14.7499H3.82497C2.377 14.7499 1.19862 15.9283 1.19862 17.3762V17.8617H6.22077C6.36228 17.8617 6.47694 17.9764 6.47694 18.1179C6.47694 18.2594 6.3635 18.3729 6.22199 18.3729Z" fill="#361343"/>
<path d="M18.6923 18.3741H13.414C13.2725 18.3741 13.1578 18.2594 13.1578 18.1179C13.1578 17.9764 13.2725 17.8617 13.414 17.8617H18.4361V17.3762C18.4361 15.9283 17.2577 14.7499 15.8098 14.7499H15.1462C14.1544 14.7499 13.2566 15.2988 12.8052 16.1832C12.7406 16.3089 12.5869 16.3589 12.46 16.2954C12.3344 16.2308 12.2844 16.0771 12.3478 15.9502C12.6064 15.4428 12.9992 15.0146 13.4835 14.7121C13.9812 14.401 14.5557 14.2363 15.1449 14.2363H15.8085C16.6466 14.2363 17.4346 14.5633 18.0275 15.1561C18.6203 15.749 18.9472 16.537 18.9472 17.375V18.1167C18.9485 18.2594 18.8338 18.3741 18.6923 18.3741Z" fill="#361343"/>
</svg>
