<svg width="20" height="20" viewBox="0 0 20 20" fill="none" xmlns="http://www.w3.org/2000/svg">
<path d="M1.9082 17.3517L1.90823 17.3517L7.74498 11.5149L7.78893 11.471L7.83001 11.5176C8.03297 11.7481 8.25234 11.9641 8.48558 12.1642L8.53338 12.2051L8.48885 12.2497L2.64763 18.0909L1.9082 17.3517ZM1.9082 17.3517C1.70462 17.5556 1.70457 17.8873 1.90823 18.091M1.9082 17.3517L1.90823 18.091M1.90823 18.091C2.11202 18.2949 2.4429 18.2963 2.64755 18.091H1.90823ZM7.14275 10.6667L7.17517 10.6343L7.15132 10.5951C6.55245 9.61166 6.2075 8.45772 6.2075 7.22432C6.2075 3.63819 9.12483 0.720443 12.7109 0.720443C16.2969 0.720443 19.2144 3.63819 19.2144 7.22432C19.2144 10.8099 16.2969 13.7276 12.7109 13.7276C11.5107 13.7276 10.3854 13.4009 9.41974 12.8314L9.38082 12.8084L9.34886 12.8404L3.37312 18.8165C2.76785 19.4218 1.78822 19.4217 1.18309 18.8165C0.578957 18.2124 0.579547 17.2291 1.18306 16.6266L1.18309 16.6265L7.14275 10.6667ZM7.23315 7.22432C7.23315 10.245 9.69072 12.702 12.7109 12.702C15.7316 12.702 18.1886 10.2445 18.1886 7.22432C18.1886 4.20367 15.7316 1.74609 12.7109 1.74609C9.69028 1.74609 7.23315 4.20367 7.23315 7.22432Z" fill="#361343" stroke="#361343" stroke-width="0.116667"/>
<path d="M14.8902 5.01709L14.8419 4.9844C14.6832 5.21897 14.3641 5.2808 14.1296 5.12216L14.1296 5.12213C13.7106 4.83916 13.2206 4.68945 12.7128 4.68945C11.3151 4.68945 10.1779 5.8264 10.1779 7.22453C10.1779 8.62223 11.3151 9.75903 12.7128 9.75903C13.9094 9.75903 14.915 8.92577 15.1795 7.80906L15.1965 7.73728H15.1228H12.7128C12.4293 7.73728 12.1999 7.50749 12.1999 7.22453C12.1999 6.94101 12.4293 6.71163 12.7128 6.71163H15.7602C16.0437 6.71163 16.2731 6.94101 16.2731 7.22453C16.2731 9.18755 14.676 10.7848 12.7128 10.7848C10.7553 10.7848 9.15208 9.19354 9.15208 7.22453C9.15208 5.26094 10.7496 3.6638 12.7128 3.6638C13.4262 3.6638 14.1147 3.87425 14.7036 4.27217L14.7036 4.27217C14.9385 4.43087 15.0002 4.74954 14.8418 4.98449L14.8902 5.01709ZM14.8902 5.01709C15.0665 4.75547 14.9979 4.40057 14.7362 4.22384L15.1082 7.85394C14.829 8.91554 13.8608 9.7007 12.7128 9.7007C11.3473 9.7007 10.2362 8.59 10.2362 7.22453C10.2362 5.85862 11.3473 4.74778 12.7128 4.74778C13.209 4.74778 13.6876 4.89404 14.0969 5.17047C14.3581 5.34721 14.7135 5.27828 14.8902 5.01709Z" fill="#361343" stroke="#361343" stroke-width="0.116667"/>
</svg>
