<svg width="83" height="68" viewBox="0 0 83 68" fill="none" xmlns="http://www.w3.org/2000/svg">
<g filter="url(#filter0_d_119_25421)">
<path d="M5.0538 35.751C2.81495 29.5998 5.98654 22.7983 12.1377 20.5595L55.6407 4.72568C61.7919 2.48682 68.5934 5.65841 70.8323 11.8096L74.7612 22.6041C77 28.7553 73.8284 35.5568 67.6772 37.7956L45.9257 45.7125L36.3388 49.2019C36.286 49.2211 36.2436 49.2617 36.2222 49.3138L32.1835 59.1447C31.8407 59.9793 30.6504 59.9551 30.3418 59.1072L27.9282 52.4759C27.8904 52.3721 27.7757 52.3186 27.6719 52.3564L24.1742 53.6294C18.023 55.8683 11.2215 52.6967 8.98267 46.5455L5.0538 35.751Z" fill="#8A84C1"/>
</g>
<path d="M43.0177 32.7087C43.8059 31.4087 44.412 30.3587 44.836 29.5588C45.2568 28.7501 45.5687 27.9562 45.7718 27.1771C45.9805 26.386 45.9747 25.6879 45.7545 25.0828C45.547 24.5127 45.2439 24.1165 44.8451 23.8941C44.4519 23.6598 43.9483 23.6543 43.3344 23.8778C42.738 24.0949 42.3418 24.4526 42.1458 24.951C41.9554 25.4375 41.9603 25.9969 42.1607 26.6292L41.003 27.0505C40.6805 26.0555 40.7026 25.1883 41.0692 24.449C41.4358 23.7097 42.062 23.1789 42.9478 22.8564C43.8511 22.5276 44.6569 22.5174 45.3651 22.8258C46.082 23.131 46.6001 23.7221 46.9193 24.5992C47.1843 25.3271 47.2236 26.1173 47.0373 26.9698C46.8565 27.8103 46.5856 28.5943 46.2246 29.3216C45.8604 30.0402 45.3746 30.9023 44.7673 31.908L49.2929 30.2608L49.6568 31.2607L43.3289 33.5638L43.0177 32.7087ZM49.3121 26.0077C48.7631 24.4992 48.5809 23.2346 48.7656 22.2139C48.9471 21.1844 49.6518 20.4462 50.8796 19.9993C52.0987 19.5556 53.1087 19.6697 53.9095 20.3417C54.7071 21.0049 55.3804 22.0907 55.9294 23.5992C56.4881 25.1341 56.6766 26.4162 56.4951 27.4457C56.3136 28.4752 55.6133 29.2118 54.3942 29.6556C53.1664 30.1025 52.1521 29.9899 51.3513 29.318C50.5505 28.646 49.8708 27.5426 49.3121 26.0077ZM54.7454 24.0302C54.4677 23.2672 54.1805 22.6417 53.8837 22.1538C53.5925 21.6539 53.23 21.2991 52.7961 21.0895C52.371 20.8768 51.8647 20.8773 51.2771 21.0912C50.6807 21.3083 50.2837 21.6365 50.086 22.0759C49.8972 22.5122 49.8475 23.0169 49.937 23.5902C50.032 24.1516 50.2184 24.8138 50.4961 25.5768C50.7834 26.3661 51.0727 27.0108 51.3639 27.5106C51.6639 28.0073 52.0264 28.3621 52.4515 28.5748C52.8853 28.7844 53.4004 28.7807 53.9968 28.5636C54.5844 28.3498 54.9727 28.0247 55.1615 27.5885C55.3592 27.149 55.4088 26.6443 55.3106 26.0742C55.2211 25.5009 55.0327 24.8195 54.7454 24.0302ZM58.2795 25.8428L57.9491 24.935L60.2397 16.8607L61.6736 16.3387L63.9529 22.6009L65.2684 22.122L65.6467 23.1613L64.3311 23.6402L65.1021 25.7582L63.918 26.1892L63.1471 24.0711L58.2795 25.8428ZM60.9971 18.0003L59.2826 24.3007L62.8215 23.0127L60.9971 18.0003Z" fill="white"/>
<path d="M34.1082 34.8367C34.0074 34.559 33.8263 34.3194 33.59 34.1472C33.6874 34.0383 33.7688 33.9157 33.8313 33.7828L33.8317 33.782C33.9863 33.4479 34.0119 33.0686 33.9039 32.7168L33.9036 32.7158C33.7844 32.3373 33.5139 32.025 33.1564 31.8529C33.0098 31.7804 32.8531 31.7314 32.6921 31.7072C32.7596 31.4456 32.755 31.1692 32.6771 30.9079L32.6768 30.9069C32.5606 30.5264 32.2914 30.2114 31.9336 30.0372C31.5439 29.8427 31.0914 29.8167 30.6819 29.9652L30.6817 29.9652L26.9895 31.3091C26.9289 31.3311 26.862 31.2999 26.8399 31.2394L25.7456 28.2326L25.7455 28.2325C25.3636 27.1869 24.2075 26.6478 23.1611 27.0273L23.161 27.0274L22.6598 27.2098C22.1669 27.3892 21.9127 27.9344 22.0921 28.4273L22.6392 29.9306C23.1458 31.3276 22.4663 32.8662 21.1154 33.4427L20.9857 33.0864C20.9071 32.8702 20.6679 32.7587 20.4517 32.8374L17.4449 33.9318C17.2287 34.0105 17.1172 34.2496 17.1959 34.4658L20.6615 43.9873C20.7402 44.2035 20.9793 44.315 21.1955 44.2363L24.2023 43.1419C24.4185 43.0632 24.53 42.8241 24.4513 42.6079L24.2162 41.9621C24.7818 41.9689 25.3445 41.8739 25.8773 41.681L25.8775 41.6809L33.1996 39.0159L33.1997 39.0158C33.7328 38.8215 34.1084 38.3398 34.167 37.7753C34.2179 37.2847 34.0217 36.8064 33.6532 36.4928C34.1358 36.0995 34.3271 35.4363 34.1082 34.8367ZM34.1082 34.8367C34.1082 34.8367 34.1082 34.8368 34.1082 34.8368L33.9672 34.888L34.1081 34.8365C34.1081 34.8366 34.1082 34.8366 34.1082 34.8367ZM23.9068 41.1118L21.4007 34.2266C23.1837 33.4918 24.0858 31.4753 23.4224 29.6459L23.4223 29.6457L22.8751 28.1423C22.8531 28.0818 22.8843 28.0149 22.9448 27.9928L23.4458 27.8105C23.4458 27.8105 23.4458 27.8105 23.4458 27.8105C24.06 27.5878 24.7384 27.9042 24.9626 28.5178L26.0569 31.5244C26.2363 32.0174 26.7815 32.2716 27.2745 32.0922L30.9665 30.7484C31.1609 30.6786 31.3754 30.6914 31.5601 30.7838L31.5601 30.7838L31.5622 30.7848C31.713 30.8573 31.8269 30.9894 31.8767 31.1493C31.9759 31.4786 31.8008 31.828 31.4775 31.9457C31.2613 32.0244 31.1498 32.2635 31.2285 32.4797C31.3072 32.6959 31.5463 32.8074 31.7625 32.7287L32.2065 32.5671C32.2065 32.5671 32.2066 32.5671 32.2067 32.567C32.3964 32.4989 32.6056 32.5109 32.7862 32.6003L32.7862 32.6003L32.7884 32.6014C32.9402 32.6735 33.0558 32.8048 33.1077 32.9646C33.1546 33.1186 33.1434 33.2843 33.0762 33.4305C33.0028 33.5872 32.8704 33.7085 32.7081 33.7678L32.2071 33.9502C31.9909 34.0289 31.8794 34.268 31.9581 34.4842C32.0368 34.7004 32.2759 34.8119 32.4921 34.7332C32.8294 34.6105 33.2024 34.7844 33.3251 35.1217C33.4479 35.4589 33.274 35.8319 32.9367 35.9547L32.185 36.2283C31.9688 36.307 31.8573 36.5461 31.936 36.7623C32.0147 36.9785 32.2538 37.09 32.47 37.0113C32.8073 36.8886 33.1803 37.0625 33.303 37.3998C33.4258 37.7371 33.2519 38.1101 32.9146 38.2328L25.5927 40.8978C25.0533 41.0932 24.4774 41.1662 23.9068 41.1118ZM23.5257 42.5014L21.302 43.3107L18.1215 34.5723L20.3452 33.7629L23.5257 42.5014Z" fill="white" stroke="white" stroke-width="0.3"/>
<defs>
<filter id="filter0_d_119_25421" x="0.38491" y="4.00781" width="79.0451" height="63.6507" filterUnits="userSpaceOnUse" color-interpolation-filters="sRGB">
<feFlood flood-opacity="0" result="BackgroundImageFix"/>
<feColorMatrix in="SourceAlpha" type="matrix" values="0 0 0 0 0 0 0 0 0 0 0 0 0 0 0 0 0 0 127 0" result="hardAlpha"/>
<feOffset dy="3.95084"/>
<feGaussianBlur stdDeviation="1.97542"/>
<feComposite in2="hardAlpha" operator="out"/>
<feColorMatrix type="matrix" values="0 0 0 0 0 0 0 0 0 0 0 0 0 0 0 0 0 0 0.05 0"/>
<feBlend mode="normal" in2="BackgroundImageFix" result="effect1_dropShadow_119_25421"/>
<feBlend mode="normal" in="SourceGraphic" in2="effect1_dropShadow_119_25421" result="shape"/>
</filter>
</defs>
</svg>
