<svg width="61" height="68" viewBox="0 0 61 68" fill="none" xmlns="http://www.w3.org/2000/svg">
<path d="M51.8677 37.1923C52.1659 37.0201 52.5408 36.9946 52.8739 37.153C53.4097 37.4127 53.6357 38.0539 53.3777 38.5925L43.734 58.7047C43.4773 59.2388 42.8332 59.4664 42.2962 59.2114C41.7605 58.9517 41.5345 58.3105 41.7925 57.7719L51.4361 37.6597C51.5298 37.4575 51.6836 37.2986 51.8677 37.1923Z" fill="#D6BFE2"/>
<path d="M36.8933 25.6067C37.3113 25.3653 37.8579 25.4278 38.2078 25.7909C38.6192 26.2198 38.61 26.8993 38.1799 27.3152L18.0216 46.8065C17.6048 47.2186 16.9103 47.2104 16.4989 46.7815C16.0876 46.3525 16.0967 45.673 16.5269 45.2571L36.6851 25.7658C36.7464 25.7032 36.8173 25.6505 36.8933 25.6067Z" fill="#D6BFE2"/>
<path d="M2.11122 17.0488C2.15214 17.0252 2.19765 17.0028 2.24486 16.9833L26.3431 7.13109C26.8951 6.90592 27.5234 7.17063 27.7486 7.72264C27.9737 8.27465 27.6969 8.90214 27.1616 9.12933L3.0634 18.9816C2.51139 19.2067 1.8831 18.942 1.65793 18.39C1.44762 17.884 1.6494 17.3154 2.11122 17.0488Z" fill="#D6BFE2"/>
</svg>
