<svg width="332" height="249" viewBox="0 0 332 249" fill="none" xmlns="http://www.w3.org/2000/svg">
<g filter="url(#filter0_d_119_25396)">
<rect x="94" y="50.6719" width="144" height="60" rx="16" fill="white"/>
</g>
<circle cx="212" cy="80.6719" r="14" fill="#A879C1"/>
<rect x="198" y="66.6719" width="28" height="28" rx="14" fill="#D9D9D9"/>
<path d="M225.992 80.6679C225.992 72.9381 219.726 66.6719 211.996 66.6719C204.266 66.6719 198 72.9381 198 80.6679C198 87.6541 203.119 93.4455 209.812 94.4978V84.7188H206.26V80.6758H209.812V77.5902C209.812 74.0853 211.901 72.1469 215.098 72.1469C216.632 72.1469 218.231 72.4238 218.231 72.4238V75.8654H216.466C214.726 75.8654 214.188 76.9414 214.188 78.0491V80.6758H218.072L217.455 84.7188H214.196V94.4978C220.873 93.4455 225.992 87.6541 225.992 80.6679Z" fill="#7DB1FD"/>
<path d="M217.437 84.7184L218.055 80.6755H214.17V78.0487C214.17 76.9411 214.716 75.8651 216.448 75.8651H218.213V72.4234C218.213 72.4234 216.615 72.1465 215.08 72.1465C211.883 72.1465 209.795 74.0849 209.795 77.5898V80.6755H206.242V84.7184H209.795V94.4974C210.507 94.6082 211.235 94.6715 211.978 94.6715C212.722 94.6715 213.45 94.6161 214.162 94.4974V84.7184H217.437Z" fill="white"/>
<ellipse cx="171.994" cy="80.6719" rx="13.9941" ry="14" fill="#A879C1"/>
<path d="M172.02 94.6719C179.741 94.6719 186 88.4039 186 80.6719C186 72.9399 179.741 66.6719 172.02 66.6719C164.298 66.6719 158.039 72.9399 158.039 80.6719C158.039 88.4039 164.298 94.6719 172.02 94.6719Z" fill="#7CDCFC"/>
<path d="M179.746 77.0432C179.264 77.2648 178.727 77.3993 178.205 77.4864C178.45 77.4468 178.814 76.9957 178.964 76.8136C179.185 76.5367 179.375 76.2201 179.478 75.8798C179.493 75.8561 179.501 75.8165 179.478 75.8006C179.446 75.7848 179.422 75.7927 179.399 75.8086C178.814 76.1251 178.213 76.3467 177.573 76.5129C177.518 76.5288 177.478 76.5129 177.446 76.4813C177.391 76.4179 177.344 76.3626 177.288 76.3151C177.02 76.0856 176.727 75.9035 176.403 75.769C175.977 75.5949 175.51 75.5237 175.044 75.5474C174.593 75.5791 174.151 75.7057 173.756 75.9114C173.353 76.1172 172.997 76.41 172.713 76.7583C172.42 77.1223 172.199 77.5497 172.088 78.0008C171.978 78.436 171.993 78.8713 172.057 79.3145C172.064 79.3857 172.057 79.4016 171.993 79.3857C169.48 79.0138 167.402 78.1116 165.71 76.1805C165.639 76.0935 165.6 76.0935 165.537 76.1884C164.794 77.2964 165.157 79.085 166.082 79.9555C166.208 80.0742 166.335 80.193 166.469 80.2958C166.422 80.3038 165.805 80.2404 165.26 79.9555C165.189 79.9081 165.149 79.9318 165.141 80.0189C165.134 80.1376 165.141 80.2484 165.165 80.3829C165.307 81.5067 166.082 82.5514 167.149 82.955C167.275 83.0104 167.418 83.0579 167.552 83.0816C167.307 83.137 167.062 83.1766 166.366 83.1212C166.279 83.1053 166.248 83.1449 166.279 83.232C166.801 84.6565 167.931 85.0839 168.777 85.3292C168.887 85.345 169.006 85.345 169.117 85.3767C169.109 85.3846 169.101 85.3846 169.093 85.4004C168.816 85.8278 167.836 86.1443 167.386 86.3026C166.564 86.5875 165.663 86.7221 164.794 86.635C164.651 86.6113 164.628 86.6192 164.588 86.635C164.549 86.6588 164.58 86.6904 164.628 86.73C164.802 86.8487 164.983 86.9516 165.165 87.0466C165.718 87.3394 166.295 87.5768 166.896 87.743C170.01 88.6056 173.519 87.9725 175.85 85.6458C177.684 83.8176 178.332 81.3009 178.332 78.7763C178.332 78.6814 178.45 78.626 178.513 78.5706C178.988 78.2144 179.375 77.7792 179.73 77.3043C179.809 77.1935 179.809 77.0986 179.809 77.059C179.809 77.0511 179.809 77.0432 179.809 77.0432C179.809 76.9957 179.809 77.0115 179.746 77.0432Z" fill="white"/>
<g filter="url(#filter1_d_119_25396)">
<circle cx="124" cy="80.6719" r="22" fill="white"/>
</g>
<circle cx="124" cy="80.6719" r="14" fill="#A879C1"/>
<path d="M124 94.6719C131.732 94.6719 138 88.4039 138 80.6719C138 72.9399 131.732 66.6719 124 66.6719C116.268 66.6719 110 72.9399 110 80.6719C110 88.4039 116.268 94.6719 124 94.6719Z" fill="url(#paint0_linear_119_25396)"/>
<path d="M128.348 75.3691C127.818 75.3691 127.383 75.7965 127.383 76.3347C127.383 76.8649 127.81 77.3002 128.348 77.3002C128.879 77.3002 129.314 76.8728 129.314 76.3347C129.306 75.8044 128.879 75.3691 128.348 75.3691Z" fill="white"/>
<path d="M124.075 76.6035C121.844 76.6035 120.031 78.4158 120.031 80.6476C120.031 82.8794 121.844 84.6917 124.075 84.6917C126.307 84.6917 128.119 82.8794 128.119 80.6476C128.119 78.4158 126.307 76.6035 124.075 76.6035ZM124.075 83.2355C122.651 83.2355 121.487 82.0721 121.487 80.6476C121.487 79.2231 122.651 78.0597 124.075 78.0597C125.5 78.0597 126.663 79.2231 126.663 80.6476C126.663 82.0721 125.5 83.2355 124.075 83.2355Z" fill="white"/>
<path d="M127.28 88.8552H120.727C118.005 88.8552 115.797 86.6472 115.797 83.9247V77.3719C115.797 74.6494 118.005 72.4414 120.727 72.4414H127.28C130.003 72.4414 132.211 74.6494 132.211 77.3719V83.9247C132.211 86.6472 129.995 88.8552 127.28 88.8552ZM120.719 73.9846C118.852 73.9846 117.332 75.5041 117.332 77.3719V83.9247C117.332 85.7924 118.852 87.3119 120.719 87.3119H127.272C129.14 87.3119 130.66 85.7924 130.66 83.9247V77.3719C130.66 75.5041 129.14 73.9846 127.272 73.9846H120.719Z" fill="white"/>
<defs>
<filter id="filter0_d_119_25396" x="0" y="0.671875" width="332" height="248" filterUnits="userSpaceOnUse" color-interpolation-filters="sRGB">
<feFlood flood-opacity="0" result="BackgroundImageFix"/>
<feColorMatrix in="SourceAlpha" type="matrix" values="0 0 0 0 0 0 0 0 0 0 0 0 0 0 0 0 0 0 127 0" result="hardAlpha"/>
<feOffset dy="44"/>
<feGaussianBlur stdDeviation="47"/>
<feComposite in2="hardAlpha" operator="out"/>
<feColorMatrix type="matrix" values="0 0 0 0 0.476685 0 0 0 0 0.299688 0 0 0 0 0.570833 0 0 0 0.36 0"/>
<feBlend mode="normal" in2="BackgroundImageFix" result="effect1_dropShadow_119_25396"/>
<feBlend mode="normal" in="SourceGraphic" in2="effect1_dropShadow_119_25396" result="shape"/>
</filter>
<filter id="filter1_d_119_25396" x="98.0492" y="58.6719" width="51.9017" height="51.9017" filterUnits="userSpaceOnUse" color-interpolation-filters="sRGB">
<feFlood flood-opacity="0" result="BackgroundImageFix"/>
<feColorMatrix in="SourceAlpha" type="matrix" values="0 0 0 0 0 0 0 0 0 0 0 0 0 0 0 0 0 0 127 0" result="hardAlpha"/>
<feOffset dy="3.95084"/>
<feGaussianBlur stdDeviation="1.97542"/>
<feComposite in2="hardAlpha" operator="out"/>
<feColorMatrix type="matrix" values="0 0 0 0 0.299687 0 0 0 0 0.41685 0 0 0 0 0.525 0 0 0 0.07 0"/>
<feBlend mode="normal" in2="BackgroundImageFix" result="effect1_dropShadow_119_25396"/>
<feBlend mode="normal" in="SourceGraphic" in2="effect1_dropShadow_119_25396" result="shape"/>
</filter>
<linearGradient id="paint0_linear_119_25396" x1="115" y1="69.1719" x2="134.5" y2="91.1719" gradientUnits="userSpaceOnUse">
<stop stop-color="#8242CE"/>
<stop offset="0.520833" stop-color="#E16175"/>
<stop offset="1" stop-color="#FDBD51"/>
</linearGradient>
</defs>
</svg>
