<svg width="20" height="20" viewBox="0 0 20 20" fill="none" xmlns="http://www.w3.org/2000/svg">
<path d="M7.60328 2.47266C4.77715 2.47266 2.47656 4.77325 2.47656 7.60304C2.47656 10.4328 4.77715 12.7334 7.60328 12.7334C10.4294 12.7334 12.73 10.4328 12.73 7.60304C12.73 4.77325 10.4294 2.47266 7.60328 2.47266ZM10.0178 11.4288C9.82669 11.5501 9.62456 11.6603 9.41508 11.7522V11.7632L8.81237 11.9653C8.42649 12.0719 8.02591 12.1344 7.60695 12.1344C7.18799 12.1344 6.78374 12.0719 6.40153 11.9653L6.32803 11.9359L5.79882 11.7522C5.58934 11.6603 5.38721 11.5501 5.19611 11.4288V10.0212C5.19611 9.4075 5.56729 8.86359 6.11855 8.63206L7.60695 10.8665L9.09535 8.63206C9.64661 8.86359 10.0178 9.4075 10.0178 10.0212V11.4288ZM10.6205 10.9694V10.0176C10.6205 8.26456 8.8381 7.92278 8.8381 7.92278L7.60328 9.77868L6.36845 7.92278C6.36845 7.92278 4.58605 8.31233 4.58605 10.0176V10.9694C3.66361 10.1388 3.07927 8.94077 3.07927 7.60304C3.07927 5.10768 5.10791 3.07537 7.60328 3.07537C10.0986 3.07537 12.1273 5.10768 12.1273 7.60304C12.1273 8.94077 11.5429 10.1388 10.6205 10.9694Z" fill="#361343"/>
<path d="M18.8267 16.2517L14.5526 11.974L14.1263 12.4003L13.2957 11.5697C14.0785 10.4451 14.5416 9.078 14.5416 7.60798C14.5416 3.77856 11.4325 0.662109 7.60672 0.662109C3.78465 0.662109 0.671875 3.77856 0.671875 7.6043C0.671875 11.43 3.78465 14.5465 7.60672 14.5465C9.09145 14.5465 10.4659 14.0761 11.5942 13.2786L12.4211 14.1055L11.9947 14.5318L16.2652 18.8096C16.607 19.1514 17.8491 19.7835 18.823 18.8096C19.7896 17.8467 19.1685 16.5935 18.8267 16.2517ZM7.60672 13.9438C4.11541 13.9438 1.27459 11.0993 1.27459 7.6043C1.27459 4.10932 4.11541 1.26482 7.60672 1.26482C11.098 1.26482 13.9389 4.10932 13.9389 7.6043C13.9389 11.0993 11.098 13.9438 7.60672 13.9438ZM12.0756 12.9074C12.3843 12.6465 12.6673 12.3598 12.9282 12.0511L13.7 12.8266L12.8474 13.6792L12.0756 12.9074ZM12.8474 14.5355L14.5526 12.8266L18.1836 16.4649L16.4783 18.1738L12.8474 14.5355ZM18.4004 18.3869C17.7719 19.0191 17.1215 18.6773 16.9377 18.5707L18.5841 16.9243C18.6907 17.1043 18.9921 17.7916 18.4004 18.3869Z" fill="#361343"/>
<path d="M7.61282 4.28516C6.61688 4.28516 5.80469 5.09735 5.80469 6.09696C5.80469 7.09658 6.61688 7.90877 7.61282 7.90877C8.60876 7.90877 9.42095 7.09658 9.42095 6.09696C9.42095 5.09735 8.61244 4.28516 7.61282 4.28516ZM7.61282 7.30238C6.94763 7.30238 6.4074 6.76215 6.4074 6.09329C6.4074 5.4281 6.94763 4.88419 7.61282 4.88419C8.27801 4.88419 8.81824 5.42443 8.81824 6.09329C8.81824 6.76215 8.27801 7.30238 7.61282 7.30238Z" fill="#361343"/>
</svg>
