<svg width="114" height="135" viewBox="0 0 114 135" fill="none" xmlns="http://www.w3.org/2000/svg">
<path d="M97.8799 0.530796C98.4073 0.389481 98.9904 0.584781 99.3183 1.0622C104.161 8.09873 107.824 15.7479 110.207 23.7949C113.406 34.6014 114.618 46.9466 113.534 57.6669C112.154 71.3754 107.098 82.1673 98.9108 88.89C93.1643 93.6076 87.7779 95.63 83.2356 96.2749C76.4269 108.322 65.317 116.049 60.8596 119.146C40.0463 133.622 17.2833 135.316 1.84277 134.187C1.11184 134.135 0.561658 133.496 0.612239 132.759C0.664543 132.028 1.30296 131.478 2.04033 131.528C17.0459 132.63 39.1686 130.989 59.3433 116.96C63.8693 113.81 73.6301 107.017 80.0564 96.5271C78.5175 96.5465 77.1135 96.4264 75.8728 96.2211C67.2744 94.8233 59.4223 88.3381 55.8867 79.6967C52.4776 71.373 54.1276 59.5223 62.7423 54.884C69.3498 51.3213 78.6568 53.4599 83.9309 59.7397C90.4511 67.5055 88.9542 77.8952 88.456 81.3099C87.8311 85.641 86.5286 89.6297 84.8018 93.2702C88.4959 92.4183 92.7313 90.5251 97.2288 86.8315C113.179 73.734 113.815 45.3628 107.658 24.5468C105.36 16.7665 101.813 9.369 97.1292 2.5656C96.712 1.96048 96.8628 1.1342 97.4744 0.71527C97.5974 0.634059 97.732 0.570433 97.8799 0.530796ZM81.6174 93.7857C83.6218 89.9467 85.1359 85.6669 85.8203 80.9408C86.2717 77.8143 87.6414 68.3135 81.8892 61.4586C77.4011 56.1056 69.5429 54.2544 64.0079 57.2402C56.7009 61.1766 55.3844 71.442 58.3556 78.6974C61.5574 86.5045 68.5977 92.3525 76.3085 93.6021C77.8211 93.8448 79.6094 93.9584 81.6174 93.7857Z" fill="#A879C1"/>
</svg>
