<svg width="36" height="36" viewBox="0 0 36 36" fill="none" xmlns="http://www.w3.org/2000/svg">
<ellipse cx="17.7318" cy="18.1719" rx="17.7313" ry="17.5" fill="#CF9BC8"/>
<path d="M16.2301 21.437C16.1609 21.437 16.0911 21.4132 16.0342 21.3647L14.0756 19.697C14.0081 19.6394 13.9692 19.5553 13.9692 19.4664C13.9692 19.3778 14.0083 19.2937 14.0756 19.2361L16.0342 17.5684C16.1614 17.4599 16.3524 17.4753 16.4608 17.6025C16.5691 17.7298 16.5539 17.9209 16.4265 18.0291L14.7387 19.4664L16.4265 20.9038C16.5539 21.0122 16.5691 21.2032 16.4608 21.3304C16.4009 21.4008 16.3157 21.437 16.2301 21.437Z" fill="#331443"/>
<path d="M20.1002 21.437C20.0145 21.437 19.9294 21.4008 19.8696 21.3304C19.7612 21.2032 19.7766 21.0122 19.9037 20.9038L21.5915 19.4664L19.9037 18.0291C19.7766 17.9209 19.7612 17.7298 19.8696 17.6025C19.9779 17.4753 20.1691 17.4599 20.2961 17.5684L22.2546 19.2361C22.3222 19.2937 22.361 19.3778 22.361 19.4664C22.361 19.5553 22.3222 19.6394 22.2546 19.697L20.2961 21.3647C20.2392 21.4132 20.1694 21.437 20.1002 21.437Z" fill="#331443"/>
<path d="M17.4755 22.6899C17.4547 22.6899 17.4338 22.6877 17.4127 22.6833C17.2492 22.6489 17.1445 22.4883 17.1789 22.3248L18.3995 16.5294C18.434 16.3659 18.5945 16.2612 18.7581 16.2956C18.9216 16.3301 19.0263 16.4905 18.9919 16.6542L17.7712 22.4496C17.7412 22.5921 17.6155 22.6899 17.4755 22.6899Z" fill="#331443"/>
<path d="M25.3012 25.8465H11.0327C9.9122 25.8465 9.00049 24.935 9.00049 23.8144V11.7041C9.00049 10.5836 9.9122 9.67188 11.0327 9.67188H25.3012C26.4216 9.67188 27.3333 10.5836 27.3333 11.7041V23.8144C27.3333 24.935 26.4216 25.8465 25.3012 25.8465ZM11.0327 10.2772C10.2459 10.2772 9.60582 10.9173 9.60582 11.7041V23.8144C9.60582 24.6011 10.2459 25.2412 11.0327 25.2412H25.3012C26.0879 25.2412 26.728 24.6011 26.728 23.8144V11.7041C26.728 10.9173 26.0879 10.2772 25.3012 10.2772H11.0327Z" fill="#331443"/>
<path d="M27.0307 14.5174H9.30315C9.13594 14.5174 9.00049 14.382 9.00049 14.2148C9.00049 14.0477 9.13594 13.9121 9.30315 13.9121H27.0307C27.1979 13.9121 27.3333 14.0477 27.3333 14.2148C27.3333 14.382 27.1979 14.5174 27.0307 14.5174Z" fill="#331443"/>
<path d="M14.1692 13.0699C13.6413 13.0699 13.2114 12.6401 13.2114 12.1121C13.2114 11.584 13.6413 11.1543 14.1692 11.1543C14.6974 11.1543 15.1271 11.584 15.1271 12.1121C15.1271 12.6401 14.6974 13.0699 14.1692 13.0699ZM14.1692 11.7596C13.975 11.7596 13.8168 11.9177 13.8168 12.1121C13.8168 12.3065 13.975 12.4646 14.1692 12.4646C14.3636 12.4646 14.5217 12.3065 14.5217 12.1121C14.5217 11.9177 14.3636 11.7596 14.1692 11.7596Z" fill="#331443"/>
<path d="M11.2317 13.0602C10.7036 13.0602 10.2739 12.6305 10.2739 12.1024C10.2739 11.5742 10.7036 11.1445 11.2317 11.1445C11.7599 11.1445 12.1896 11.5742 12.1896 12.1024C12.1896 12.6305 11.7599 13.0602 11.2317 13.0602ZM11.2317 11.7499C11.0375 11.7499 10.8793 11.9081 10.8793 12.1024C10.8793 12.2968 11.0375 12.4548 11.2317 12.4548C11.4261 12.4548 11.5842 12.2968 11.5842 12.1024C11.5842 11.9081 11.4261 11.7499 11.2317 11.7499Z" fill="#331443"/>
<path d="M17.1144 13.0795C16.5864 13.0795 16.1567 12.6499 16.1567 12.1217C16.1567 11.5937 16.5864 11.1641 17.1144 11.1641C17.6425 11.1641 18.0722 11.5937 18.0722 12.1217C18.0722 12.6499 17.6425 13.0795 17.1144 13.0795ZM17.1144 11.7692C16.9202 11.7692 16.7621 11.9273 16.7621 12.1217C16.7621 12.3161 16.9202 12.4742 17.1144 12.4742C17.3088 12.4742 17.4669 12.3161 17.4669 12.1217C17.4669 11.9273 17.3088 11.7692 17.1144 11.7692Z" fill="#331443"/>
</svg>
