<svg width="83" height="160" viewBox="0 0 83 160" fill="none" xmlns="http://www.w3.org/2000/svg">
<path opacity="0.4" d="M36.6607 159.259C36.2133 159.572 35.5985 159.587 35.1274 159.25C28.1733 154.29 22.1193 148.351 17.1315 141.601C10.4354 132.536 5.08113 121.347 2.44031 110.9C-0.943063 97.5444 0.12508 85.6746 5.52516 76.5606C9.31575 70.1645 13.6881 66.4247 17.7373 64.2677C20.0238 50.6197 27.8283 39.5645 30.9606 35.1318C45.581 14.4195 66.3977 5.0554 81.2961 0.845312C82.001 0.64493 82.736 1.05716 82.9402 1.76748C83.1406 2.47235 82.7284 3.20746 82.0181 3.41166C67.5382 7.49977 47.3047 16.5942 33.1319 36.6685C29.9533 41.1742 23.0981 50.8913 20.6394 62.9453C22.0792 62.4017 23.4398 62.0352 24.676 61.8046C33.235 60.1829 42.8295 63.5976 49.1029 70.5127C55.1489 77.1724 57.644 88.8743 51.1304 96.1751C46.1363 101.78 36.6584 102.947 29.5572 98.8451C20.7774 93.772 18.6373 83.4955 17.9397 80.1159C17.0484 75.8317 16.9109 71.6379 17.291 67.6266C14.1097 69.6886 10.7751 72.914 7.80895 77.9211C-2.71167 95.6773 6.37714 122.561 19.2706 140.024C24.0872 146.552 29.9466 152.294 36.6717 157.09C37.2704 157.516 37.4107 158.344 36.9789 158.947C36.891 159.065 36.7862 159.171 36.6607 159.259ZM20.1081 66.0549C19.5348 70.3476 19.5729 74.8871 20.5431 79.563C21.1863 82.6557 23.1425 92.0533 30.8894 96.5324C36.9354 100.032 44.9535 99.0887 49.1365 94.3925C54.6605 88.1981 52.3932 78.0999 47.1235 72.2949C41.4487 66.05 32.8348 62.957 25.1607 64.415C23.6561 64.7033 21.9365 65.207 20.1081 66.0549Z" fill="#A57ABC"/>
</svg>
