<svg width="63" height="48" viewBox="0 0 63 48" fill="none" xmlns="http://www.w3.org/2000/svg">
<path d="M46.8723 31.6453C44.8838 25.2697 40.867 19.4078 35.2021 15.7742C32.2167 13.8554 28.8388 12.7055 25.4217 12.2932C27.5328 8.41715 31.1505 5.40444 36.2038 4.11815C47.5229 1.23573 58.4132 9.38957 59.8125 20.787C59.9811 22.1797 62.135 22.2624 62.0567 20.7872C61.4068 8.46791 50.4303 -0.690301 38.1972 0.799233C30.735 1.70863 25.0967 6.13744 22.2752 12.1202C15.4212 12.2097 8.8375 15.3162 5.31371 21.3421C5.34913 20.2789 5.31001 19.2274 5.16888 18.1916C5.02776 17.1559 3.33288 17.2028 3.1523 18.1914C2.43784 22.0283 2.00981 25.6652 0.612711 29.3451C0.047592 30.8359 2.2406 31.9622 3.26079 30.8637C5.772 28.1569 9.25971 29.2441 12.4218 29.8015C14.3207 30.1313 15.0703 27.4674 13.1911 26.8748C10.6489 26.0742 7.84378 25.6384 5.30925 26.2109C7.94254 19.365 14.3301 15.4031 21.196 14.9488C20.1716 18.3267 19.9751 22.0538 20.7475 25.8399C21.9514 31.7289 24.9442 37.7358 28.9808 42.1892C32.5074 46.0855 38.3019 48.7814 43.375 46.0788C48.6522 43.2585 48.4136 36.6006 46.8723 31.6453ZM30.6524 39.8119C27.6554 36.3041 25.3764 31.843 24.0979 27.4253C22.8664 23.1566 22.9336 18.7899 24.2405 14.9805C26.0687 15.1376 27.893 15.5419 29.6624 16.213C34.7115 18.1242 38.8344 21.9891 41.5371 26.615C43.7965 30.4758 46.4049 36.5533 44.376 41.006C41.531 47.2399 33.8181 43.5197 30.6524 39.8119Z" fill="#2C224E"/>
</svg>
